<?xml version="1.0" encoding="UTF-8"?>
<svg version="1.1" xmlns="http://www.w3.org/2000/svg" width="512" height="512">
<path d="M0 0 C1.74260021 -0.00551503 1.74260021 -0.00551503 3.52040446 -0.01114148 C6.73681507 -0.02023913 9.95319569 -0.0248716 13.16961694 -0.02753079 C16.64225058 -0.03144624 20.11486962 -0.04102379 23.5874939 -0.04974365 C31.97075398 -0.0694748 40.35401521 -0.07957077 48.73729271 -0.08847144 C52.69112058 -0.0928605 56.64494713 -0.09822577 60.59877396 -0.10346031 C73.75303812 -0.12047049 86.90730147 -0.13496229 100.06157494 -0.14220905 C103.4725787 -0.14411876 106.88358245 -0.14603912 110.29458618 -0.147995 C111.56617495 -0.14872061 111.56617495 -0.14872061 112.86345239 -0.14946087 C126.58073943 -0.15775234 140.29793901 -0.18307522 154.0151879 -0.21557567 C168.11801161 -0.2487155 182.22079099 -0.26666412 196.32365382 -0.26985329 C204.23387428 -0.27201217 212.14396727 -0.28066901 220.05414963 -0.30631447 C226.79417226 -0.32811644 233.53403644 -0.33602562 240.27409033 -0.32634769 C243.70703984 -0.32183003 247.13966311 -0.32353907 250.57256699 -0.34310913 C273.71077475 -0.45343215 294.88687495 1.14284544 312.46939087 17.9601593 C328.51898213 33.9552528 333.59064691 52.26724124 333.6668784 74.45345724 C333.6653298 75.44521573 333.6637812 76.43697423 333.66218567 77.45878601 C333.66445123 78.54271468 333.66671678 79.62664335 333.66905099 80.74341834 C333.67534016 84.34594985 333.67456494 87.94844325 333.67373657 91.55097961 C333.67673105 94.14544218 333.68013424 96.7399043 333.68391418 99.33436584 C333.69218425 105.6304764 333.69496727 111.92657759 333.69552656 118.22269313 C333.696003 123.3391894 333.69806406 128.45568259 333.70122719 133.57217789 C333.71002002 148.09096899 333.71464815 162.60975273 333.71389671 177.12854652 C333.71383678 178.30009719 333.71383678 178.30009719 333.71377563 179.49531555 C333.71373475 180.27730578 333.71369387 181.05929601 333.71365175 181.86498292 C333.71324458 194.56117643 333.72283552 207.25734039 333.736914 219.95352535 C333.75126895 233.00215304 333.75818483 246.05076629 333.75732023 259.09940207 C333.75698819 266.42061911 333.75973893 273.74180507 333.77049828 281.06301498 C333.78054024 287.93965743 333.78027717 294.81623307 333.77298164 301.69287872 C333.77193274 304.21927867 333.7743167 306.74568267 333.7803421 309.27207565 C333.78802109 312.71394805 333.78344449 316.15559069 333.77571106 319.59745789 C333.78085462 320.60260071 333.78599819 321.60774354 333.79129761 322.64334524 C333.74714832 331.50228052 333.74714832 331.50228052 331.5284729 335.14717102 C328.13748009 338.41256752 325.54742059 338.52348148 320.92823887 338.52748775 C320.26327899 338.53214767 319.59831911 338.53680759 318.91320893 338.54160872 C316.67502859 338.55360224 314.43745042 338.54414697 312.19926453 338.53485107 C310.58245025 338.5390221 308.96563891 338.54449834 307.34883302 338.55117089 C302.89804855 338.56567462 298.44744846 338.56136546 293.99665368 338.55400407 C289.19970131 338.54928685 284.40278967 338.5617694 279.60585022 338.57202148 C270.20524433 338.58924322 260.80470518 338.59004252 251.40408761 338.58480858 C243.76548812 338.58077196 236.1269084 338.58220439 228.48830986 338.58755684 C226.85937581 338.58867947 226.85937581 338.58867947 225.19753401 338.58982478 C222.99162479 338.59135621 220.78571558 338.59289456 218.57980638 338.59443975 C197.8796066 338.60817698 177.17944458 338.6027185 156.47924566 338.59125454 C137.52945118 338.58132062 118.57975432 338.59426343 99.62997491 338.61818873 C80.18569058 338.64255396 60.74145176 338.65219397 41.29715246 338.64553601 C30.37529407 338.64203808 19.45351078 338.64431358 8.53166389 338.66178703 C-0.76581132 338.67647682 -10.06315854 338.67718676 -19.36063116 338.65971612 C-24.10655806 338.65117715 -28.85225601 338.64912693 -33.59817123 338.66436768 C-37.94013283 338.67813886 -42.2816677 338.67354994 -46.62360413 338.65412844 C-48.19691311 338.65034472 -49.77025566 338.65335813 -51.34353494 338.66374009 C-53.478026 338.67682722 -55.6110261 338.66540335 -57.74545193 338.64774227 C-58.93218799 338.64763493 -60.11892405 338.6475276 -61.34162182 338.64741701 C-65.15524917 338.0378932 -66.80558612 336.90843581 -69.4715271 334.14717102 C-70.62917098 331.32207267 -70.59747516 328.59144916 -70.60016155 325.55827618 C-70.603386 324.63646264 -70.60661044 323.7146491 -70.6099326 322.76490182 C-70.608384 321.75568368 -70.6068354 320.74646554 -70.60523987 319.70666504 C-70.6086382 318.09420166 -70.6086382 318.09420166 -70.61210519 316.44916326 C-70.61845286 312.83440959 -70.61761531 309.21969333 -70.61679077 305.60493469 C-70.61978193 303.01787772 -70.62318436 300.43082119 -70.62696838 297.84376526 C-70.63527837 291.53598678 -70.63802346 285.22821764 -70.63858076 278.92043414 C-70.63905613 273.7881241 -70.64111197 268.65581714 -70.64428139 263.52350807 C-70.653092 248.95867902 -70.65770059 234.39385733 -70.65695091 219.82902559 C-70.65691096 219.04367423 -70.656871 218.25832286 -70.65682983 217.44917297 C-70.65678895 216.66285672 -70.65674807 215.87654047 -70.65670595 215.06639645 C-70.65630025 202.34741414 -70.66584951 189.62846154 -70.6799682 176.90948781 C-70.694365 163.83617317 -70.70123644 150.76287298 -70.70037442 137.68955022 C-70.7000434 130.35561419 -70.70274828 123.02170924 -70.71355247 115.68778038 C-70.72366247 108.78083098 -70.72328839 101.87394795 -70.71603584 94.96699524 C-70.71499413 92.43996395 -70.71732815 89.91292853 -70.7233963 87.38590431 C-70.78113078 61.66384431 -69.78140199 38.54444275 -50.9090271 18.95967102 C-36.94275508 5.15245809 -19.27289741 -0.00327659 0 0 Z M-40.7684021 32.50263977 C-53.36642015 47.39766487 -53.4715271 61.32477693 -53.4715271 81.14717102 C68.6284729 81.14717102 190.7284729 81.14717102 316.5284729 81.14717102 C316.5284729 60.07413388 315.99387166 45.49557643 301.8175354 30.28388977 C289.12019554 18.43159471 273.92870473 15.98848677 257.24508667 16.01345825 C256.12782471 16.0111927 255.01056276 16.00892714 253.85944438 16.00659293 C250.12573757 16.00027644 246.39206727 16.00108079 242.65835571 16.00190735 C239.97717148 15.99891439 237.29599008 15.99553968 234.61480713 15.99172974 C228.09334933 15.98344057 221.57190058 15.98067568 215.05043796 15.98011736 C209.74657312 15.97964136 204.44271125 15.97758244 199.13884735 15.97441673 C184.0844162 15.96561479 169.02999217 15.96099662 153.97555843 15.96174721 C152.75941711 15.96180714 152.75941711 15.96180714 151.51870728 15.96186829 C150.30107221 15.96192961 150.30107221 15.96192961 149.05883846 15.96199217 C135.90806019 15.96239848 122.75731057 15.95283153 109.60654059 15.93872992 C96.08675898 15.92434761 82.56699132 15.91746076 69.04720187 15.9183237 C61.46358705 15.91865503 53.88000226 15.91593583 46.29639435 15.90514565 C39.83886992 15.8960162 33.38138916 15.89388539 26.92386106 15.90065507 C23.63325076 15.90390802 20.34274099 15.90292301 17.05213547 15.89530182 C13.47461428 15.88755484 9.8973104 15.89224475 6.3197937 15.89993286 C4.78123053 15.89221752 4.78123053 15.89221752 3.21158528 15.88434631 C-13.86950993 15.96504459 -28.56472404 19.9876434 -40.7684021 32.50263977 Z M-53.4715271 97.14717102 C-53.4715271 105.39717102 -53.4715271 113.64717102 -53.4715271 122.14717102 C68.6284729 122.14717102 190.7284729 122.14717102 316.5284729 122.14717102 C316.5284729 113.89717102 316.5284729 105.64717102 316.5284729 97.14717102 C194.4284729 97.14717102 72.3284729 97.14717102 -53.4715271 97.14717102 Z M-53.4715271 138.14717102 C-53.4715271 198.86717102 -53.4715271 259.58717102 -53.4715271 322.14717102 C68.6284729 322.14717102 190.7284729 322.14717102 316.5284729 322.14717102 C316.5284729 261.42717102 316.5284729 200.70717102 316.5284729 138.14717102 C274.9484729 138.14717102 233.3684729 138.14717102 190.5284729 138.14717102 C191.11286674 144.57550328 191.67323441 150.63570426 192.74356079 156.93843079 C192.9193441 157.98476181 192.9193441 157.98476181 193.09867859 159.05223083 C193.34954972 160.54306724 193.60220869 162.03360378 193.85655403 163.52385139 C194.26018335 165.89169259 194.657852 168.26046899 195.05397034 170.62957764 C196.17970697 177.35716641 197.31442115 184.08321807 198.45645142 190.80805969 C199.15829877 194.94337661 199.85214074 199.07997441 200.54122734 203.21743584 C200.803292 204.78107333 201.06837793 206.34420787 201.33668709 207.90678596 C204.76575605 227.88431717 204.76575605 227.88431717 203.5284729 232.14717102 C200.19304129 235.34850753 196.47447369 237.3658422 192.36465454 239.43110657 C191.76884079 239.73244507 191.17302704 240.03378357 190.55915833 240.34425354 C188.60532792 241.33025662 186.64724536 242.30743207 184.68862915 243.28388977 C183.3199475 243.97051333 181.95141446 244.65743318 180.58302307 245.34463501 C177.72121412 246.77999573 174.85719047 248.21081538 171.99160767 249.6386261 C168.32738218 251.46498884 164.66966042 253.30397391 161.01358891 255.14659405 C158.19134372 256.56690609 155.36539706 257.97972311 152.53832817 259.39040565 C151.18835794 260.0653143 149.83961999 260.74269386 148.49217415 261.4226284 C146.60576298 262.37330538 144.71449972 263.31356919 142.82168579 264.25141907 C141.74866714 264.78784531 140.6756485 265.32427155 139.57011414 265.87695312 C135.69464009 267.49538742 132.39662758 268.58989294 128.23170471 267.60287476 C127.12744896 267.11832069 127.12744896 267.11832069 126.00088501 266.62397766 C125.13680023 266.24717865 124.27271545 265.87037964 123.38244629 265.48216248 C117.8722304 262.90467133 112.4093377 260.24148201 106.96987915 257.51826477 C105.69107028 256.88080851 104.41217357 256.24352845 103.13319397 255.60641479 C100.47363517 254.28033794 97.81561779 252.95123149 95.15859985 251.62007141 C91.75699899 249.91635401 88.35089885 248.2218501 84.94352818 246.52970791 C82.31032663 245.22046952 79.67991357 243.90570637 77.0502758 242.58932686 C75.79492511 241.96190766 74.53863158 241.33637115 73.28137398 240.71278191 C71.52957931 239.84305586 69.78197666 238.96490169 68.03457642 238.08638 C67.04103653 237.58992477 66.04749664 237.09346954 65.02384949 236.58197021 C62.7183527 235.25634868 61.11951037 234.26624748 59.5284729 232.14717102 C57.65287615 223.34172787 60.87141412 212.82867104 62.3722229 204.06513977 C62.66450878 202.32034839 62.95595787 200.57541664 63.24661255 198.83035278 C64.0091533 194.26258658 64.78063272 189.69638143 65.55477905 185.13056946 C66.79561417 177.80674841 68.02541531 170.48108653 69.25010681 163.15455055 C69.67836525 160.60301818 70.11210272 158.05246067 70.54641724 155.50195312 C70.80950141 153.93735315 71.07240965 152.37272357 71.33511353 150.80805969 C71.45667313 150.10303818 71.57823273 149.39801666 71.70347595 148.67163086 C72.30520009 145.05668783 72.5284729 141.84674671 72.5284729 138.14717102 C30.9484729 138.14717102 -10.6315271 138.14717102 -53.4715271 138.14717102 Z M89.5284729 138.14717102 C86.07893822 156.24982967 86.07893822 156.24982967 82.9503479 174.40107727 C82.73200376 175.72913905 82.51351456 177.057177 82.29489136 178.38519287 C81.84623857 181.11440295 81.39951249 183.84391885 80.95425415 186.57368469 C80.38452888 190.06529559 79.8093326 193.55598164 79.23273849 197.04646397 C78.67725105 200.41417455 78.1265254 203.78265859 77.5753479 207.15107727 C77.36915833 208.39885452 77.16296875 209.64663177 76.95053101 210.93222046 C76.76323425 212.08540268 76.5759375 213.2385849 76.38296509 214.42671204 C76.21738098 215.43814774 76.05179688 216.44958344 75.88119507 217.4916687 C75.44069259 220.36156248 75.44069259 220.36156248 75.5284729 224.14717102 C87.81766534 230.35070169 100.14697903 236.45397618 112.58535767 242.35346985 C113.47924194 242.77781311 114.37312622 243.20215637 115.2940979 243.63935852 C116.16228149 244.04638 117.03046509 244.45340149 117.92495728 244.87275696 C119.71218165 245.7475986 121.47374913 246.67626409 123.21011353 247.64814758 C124.07314087 248.12477844 124.93616821 248.6014093 125.8253479 249.09248352 C126.58686157 249.53350403 127.34837524 249.97452454 128.13296509 250.4289093 C133.87360772 252.15016599 140.61544433 247.27530691 145.7315979 244.75263977 C146.60942932 244.32340714 147.48726074 243.8941745 148.39169312 243.45193481 C151.18902208 242.0830242 153.98374637 240.70888556 156.7784729 239.33467102 C158.64158998 238.42222636 160.50486971 237.51011371 162.36831665 236.5983429 C170.77253 232.48242397 179.16314944 228.34166147 187.5284729 224.14717102 C186.25575644 213.39621481 184.72952206 202.71488916 182.96206665 192.03388977 C182.72050303 190.56181991 182.47913861 189.08971735 182.23796082 187.61758423 C181.73819123 184.57121457 181.23632378 181.52520081 180.7328186 178.47944641 C180.08791219 174.57749511 179.44804604 170.67473651 178.80964565 166.77171612 C178.31477319 163.74916541 177.81750331 160.72701305 177.31947517 157.70498085 C177.08235477 156.26458432 176.84593197 154.82407276 176.61022758 153.38344383 C176.2825727 151.38330972 175.95138362 149.38375553 175.62002563 147.38423157 C175.43286484 146.24890488 175.24570404 145.11357819 175.0528717 143.94384766 C174.581307 141.07905246 174.581307 141.07905246 173.5284729 138.14717102 C145.8084729 138.14717102 118.0884729 138.14717102 89.5284729 138.14717102 Z " fill="#000000" transform="translate(124.47152709960938,86.85282897949219)"/>
<path d="M0 0 C6.2763705 3.41921677 10.54765364 8.00604492 12.66015625 14.90234375 C14.11335984 22.35540769 13.11444125 29.27832023 8.91796875 35.65234375 C6.38695225 38.8939611 3.74418444 41.13089085 0.0546875 42.92578125 C-0.6053125 42.92578125 -1.2653125 42.92578125 -1.9453125 42.92578125 C-1.92960205 43.75303711 -1.9138916 44.58029297 -1.89770508 45.43261719 C-1.83534946 49.18026902 -1.79631904 52.9278117 -1.7578125 56.67578125 C-1.73267578 57.97773438 -1.70753906 59.2796875 -1.68164062 60.62109375 C-1.67197266 61.87148438 -1.66230469 63.121875 -1.65234375 64.41015625 C-1.6366333 65.56225586 -1.62092285 66.71435547 -1.60473633 67.90136719 C-1.98138626 71.24612659 -2.55385338 72.59261675 -4.9453125 74.92578125 C-8.91875411 76.02951503 -11.03531022 76.34121708 -14.8203125 74.61328125 C-16.9453125 72.92578125 -16.9453125 72.92578125 -17.9453125 70.92578125 C-18.03075145 68.82049192 -18.05245975 66.71246968 -18.04296875 64.60546875 C-18.03974609 63.34863281 -18.03652344 62.09179688 -18.03320312 60.796875 C-18.02482422 59.47816406 -18.01644531 58.15945313 -18.0078125 56.80078125 C-18.00279739 55.46093914 -17.99823451 54.12109525 -17.99414062 52.78125 C-17.98232336 49.49604919 -17.96584867 46.21093728 -17.9453125 42.92578125 C-18.71746094 42.63058594 -19.48960937 42.33539063 -20.28515625 42.03125 C-26.41439431 39.48415107 -29.08036601 35.65567423 -31.9453125 29.92578125 C-34.15723244 22.64972883 -33.35011928 15.66137727 -29.9453125 8.92578125 C-23.68188434 -1.43296533 -10.97549038 -4.00299715 0 0 Z M-14.2578125 16.11328125 C-16.18454349 18.18273306 -16.86207247 19.09562028 -16.9453125 21.92578125 C-15.79744309 24.16934419 -14.7357358 26.13535795 -12.9453125 27.92578125 C-8.79798448 28.3409973 -8.79798448 28.3409973 -5.1328125 26.67578125 C-3.7332625 24.61328651 -3.09266766 23.43081896 -2.9453125 20.92578125 C-3.88335032 18.13988015 -3.88335032 18.13988015 -5.9453125 15.92578125 C-9.35306001 14.76569699 -11.02366446 14.45250253 -14.2578125 16.11328125 Z " fill="#000000" transform="translate(265.9453125,240.07421875)"/>
</svg>
