<?xml version="1.0" encoding="UTF-8"?>
<svg version="1.1" xmlns="http://www.w3.org/2000/svg" width="1024" height="1024">
<path d="M0 0 C1.46846626 0.12823465 1.46846626 0.12823465 2.96659851 0.25905991 C20.06851476 1.75286395 20.06851476 1.75286395 26.70141602 2.33770752 C73.89327735 6.49765012 119.03444435 6.32587293 166.203125 1.94140625 C169.1970559 1.66485469 172.19105997 1.38909856 175.18505859 1.11328125 C181.70378341 0.51227099 188.22242531 -0.08963146 194.7409668 -0.69262695 C195.56669976 -0.769008 196.39243273 -0.84538904 197.2431879 -0.92408466 C202.24292567 -1.38683963 207.24246757 -1.85165777 212.24190235 -2.31767368 C230.23977397 -3.99425811 248.23512438 -5.64143268 266.265625 -6.93359375 C267.03496368 -6.98903351 267.80430237 -7.04447327 268.59695435 -7.10159302 C272.78823822 -7.40019388 276.98033514 -7.6767345 281.17446899 -7.93212891 C283.21617527 -8.05940729 285.25675401 -8.19962072 287.29760742 -8.33984375 C301.83115937 -9.27937525 316.38586055 -9.28044133 330.94360352 -9.29882812 C333.89945848 -9.30320885 336.85502092 -9.31711712 339.81079102 -9.33984375 C362.81220653 -9.51294791 386.15579752 -9.49416302 408.203125 -2.05859375 C408.97269531 -1.80851563 409.74226562 -1.5584375 410.53515625 -1.30078125 C426.33781089 5.12002123 436.24340493 27.73837431 442.55810547 42.4050293 C456.12716833 74.99418733 460.53346251 112.2051021 448.203125 145.94140625 C447.543125 145.94140625 446.883125 145.94140625 446.203125 145.94140625 C445.05481589 143.52588955 443.90894981 141.1092832 442.765625 138.69140625 C442.40726563 137.93359863 442.04890625 137.17579102 441.6796875 136.39501953 C439.33273984 131.40775576 437.0583853 126.39345447 434.828125 121.35302734 C424.41394732 97.28375846 424.41394732 97.28375846 408.203125 76.94140625 C402.8377137 78.72987668 400.84660512 84.69443107 398.37402344 89.52246094 C365.48214169 157.47341263 353.92520149 239.514698 340.625 313.03125 C340.42231003 314.14954193 340.21962006 315.26783386 340.01078796 316.42001343 C339.06802362 321.63633107 338.13799601 326.85437225 337.23168945 332.07714844 C329.94543121 373.47685858 329.94543121 373.47685858 313.9921875 385.625 C302.36362223 393.17039591 290.22416356 394.53333362 276.69360352 394.44934082 C275.05822223 394.45395864 273.42284511 394.46031744 271.78747654 394.4682498 C267.32680806 394.48484536 262.86648482 394.4767416 258.4058156 394.46430492 C253.58227815 394.45521646 248.75879809 394.46924291 243.93527222 394.48022461 C234.49910296 394.49797403 225.06306126 394.49418581 215.62688708 394.48257405 C207.95519642 394.4735259 200.2835414 394.4723217 192.61184692 394.47666931 C190.9715545 394.47758871 190.9715545 394.47758871 189.29812485 394.47852668 C187.07636729 394.47980563 184.85460974 394.48110249 182.6328522 394.48241705 C161.8188552 394.49381237 141.00492878 394.48072559 120.19094336 394.45921558 C102.34698681 394.44134557 84.50313436 394.44444997 66.65917969 394.46289062 C45.91763948 394.48431585 25.17616105 394.49271383 4.43461132 394.48044157 C2.22120858 394.47916743 0.00780583 394.47790994 -2.20559692 394.47666931 C-3.83898228 394.47574366 -3.83898228 394.47574366 -5.50536531 394.47479931 C-13.16430775 394.47135137 -20.82321087 394.47716276 -28.48214722 394.48658752 C-37.82090339 394.49782723 -47.15952513 394.49472601 -56.49826598 394.47346455 C-61.25941852 394.46298069 -66.02034727 394.45878672 -70.78149796 394.47206116 C-75.14634644 394.48404627 -79.51076526 394.47732248 -83.87557518 394.45615095 C-85.44808154 394.45171067 -87.02062477 394.4538927 -88.5931071 394.4636541 C-103.07012369 394.54657521 -116.49694087 392.01518273 -127.72265625 382.26953125 C-139.98781775 369.54204659 -143.73369387 350.77066528 -146.64453125 334.00390625 C-146.89916425 332.5755892 -147.15469197 331.1474314 -147.41104126 329.71942139 C-147.95288123 326.69572561 -148.49068137 323.67135407 -149.02523804 320.6463623 C-150.44168503 312.64112996 -151.89526893 304.64259582 -153.3515625 296.64453125 C-153.49740721 295.84287788 -153.64325191 295.04122452 -153.79351616 294.21527863 C-170.37008478 180.50695491 -170.37008478 180.50695491 -215.796875 76.94140625 C-234.68367533 84.25791449 -246.47978712 125.28834692 -254 142.17993164 C-254.57273511 143.44594996 -255.17545278 144.69856181 -255.796875 145.94140625 C-256.456875 145.94140625 -257.116875 145.94140625 -257.796875 145.94140625 C-270.76267573 110.46644892 -265.34645737 71.62081732 -250.1171875 37.86328125 C-243.61472538 23.87036938 -233.93295025 4.22619363 -219.04296875 -2.2578125 C-153.18835733 -24.42913975 -67.74105186 -5.91581682 0 0 Z " fill="#000000" transform="translate(416.796875,190.05859375)"/>
<path d="M0 0 C0.66 0 1.32 0 2 0 C2.07135666 0.63508484 2.14271332 1.27016968 2.2162323 1.92449951 C6.40668227 39.09211141 11.15639328 76.15888211 16.4375 113.1875 C16.57707375 114.16620182 16.71664749 115.14490364 16.86045074 116.15326309 C18.11337488 124.93381495 19.37036667 133.7137814 20.63198853 142.49308777 C22.95238416 158.64015545 25.23635045 174.79216454 27.50247192 190.94692993 C28.03684878 194.75604547 28.5728647 198.56492925 29.10913086 202.3737793 C29.27429703 203.5482814 29.4394632 204.72278351 29.6096344 205.93287659 C29.93028191 208.21243844 30.25142359 210.49193084 30.57310486 212.77134705 C31.32828698 218.13923016 32.07171259 223.5082474 32.78609943 228.88173199 C33.05133226 230.87592351 33.31868366 232.86982105 33.58653259 234.86366272 C33.92259123 237.37283268 34.254228 239.88260047 34.58058167 242.39305115 C36.28368645 255.0586269 38.75509001 266.40686052 49 275 C57.63151665 280.02197332 68.41828019 279.17869601 78.12890625 279.31640625 C79.97427223 279.3475779 79.97427223 279.3475779 81.85691833 279.37937927 C85.75872605 279.4443833 89.6605969 279.50352978 93.5625 279.5625 C96.21941588 279.60525553 98.87630751 279.64934774 101.53320312 279.69335938 C108.02207009 279.80001386 114.51099884 279.90186847 121 280 C121.11359878 287.4005795 120.76472032 294.71015539 120.23046875 302.08984375 C120.14970596 303.24848938 120.06894318 304.40713501 119.98573303 305.60089111 C119.81226867 308.0888698 119.63741855 310.5767522 119.46130371 313.06454468 C118.99560788 319.65181535 118.54151202 326.23988033 118.08984375 332.828125 C118.04386677 333.49772436 117.99788979 334.16732372 117.95051956 334.85721397 C116.96116296 349.2953601 116.08629335 363.73969447 115.25 378.1875 C115.18533539 379.30365692 115.12067078 380.41981384 115.05404663 381.5697937 C114.6989288 387.71298432 114.34760851 393.85638007 114 400 C114.68163208 400.20382797 115.36326416 400.40765594 116.06555176 400.61766052 C117.41078918 401.02045982 117.41078918 401.02045982 118.78320312 401.43139648 C119.67108521 401.69709946 120.55896729 401.96280243 121.47375488 402.23655701 C124.4921655 403.1487347 127.49533953 404.10611967 130.5 405.0625 C158.19006895 413.5575797 182.2306411 408.92311963 209 400 C209 360.4 209 320.8 209 280 C272.36 280 335.72 280 401 280 C401 319.6 401 359.2 401 400 C402.65 400.33 404.3 400.66 406 401 C407.79316733 401.67597956 409.58556381 402.35480669 411.36352539 403.06982422 C437.92135584 413.70069263 463.51703673 411.38519049 490 402 C491.99917709 401.33086966 493.99905693 400.66383076 496 400 C495.23690632 387.41224638 494.47202676 374.82460266 493.7049036 362.23709393 C493.34870575 356.39143204 492.99310974 350.54573486 492.63891602 344.69995117 C492.2967089 339.05237447 491.95288577 333.4048982 491.60796928 327.75748634 C491.47703625 325.60910309 491.34667329 323.46068502 491.21690559 321.31223106 C491.0342418 318.28968259 490.84950171 315.26726734 490.66430664 312.24487305 C490.61179749 311.36804871 490.55928833 310.49122437 490.50518799 309.58782959 C490.22997068 305.13152186 489.88687196 300.6911695 489.46238708 296.24641418 C489.10447995 292.42056416 488.88755046 288.65861489 488.9375 284.8125 C488.94652344 283.89082031 488.95554687 282.96914063 488.96484375 282.01953125 C488.98224609 281.01986328 488.98224609 281.01986328 489 280 C489.67492493 279.99191315 490.34984985 279.98382629 491.04522705 279.97549438 C498.11919857 279.88891831 505.19290679 279.78939654 512.26660156 279.68261719 C514.90067089 279.64451714 517.53478888 279.60963248 520.16894531 279.578125 C523.97218125 279.53206007 527.77508754 279.47413611 531.578125 279.4140625 C533.32261932 279.39673569 533.32261932 279.39673569 535.10235596 279.37905884 C550.05953948 279.3839583 550.05953948 279.3839583 563 273 C563.49886719 272.56300781 563.99773438 272.12601563 564.51171875 271.67578125 C572.71550072 263.47199928 574.67216517 250.28863448 575.98368073 239.26766396 C576.34793744 236.2168241 576.75054969 233.17124237 577.14934921 230.12475491 C577.37834051 228.37397284 577.60560683 226.62296447 577.83133316 224.87175846 C579.34577083 213.17755317 581.05370748 201.5106494 582.73720932 189.83984184 C583.74441081 182.85397226 584.74214475 175.86674509 585.74072266 168.87963867 C585.84271288 168.16619785 585.94470311 167.45275703 586.04978395 166.71769679 C595.30664601 102.26568207 595.30664601 102.26568207 603.625 37.6875 C603.7146553 36.9451926 603.80431061 36.20288521 603.89668274 35.43808365 C605.31974774 23.63164141 606.69649218 11.82027057 608 0 C612.02674953 1.34224984 613.08954331 3.87854266 615.125 7.375 C615.71486694 8.38095215 615.71486694 8.38095215 616.31665039 9.40722656 C662.42837289 89.56799918 671.31207947 197.05192175 689 425 C689.02922546 425.80987366 689.05845093 426.61974731 689.08856201 427.4541626 C689.9974179 452.97056337 690.12818519 478.46945374 690 504 C615.35806612 546.80779273 504.80172389 546.01879932 421.5 550.1875 C420.39424118 550.24289444 420.39424118 550.24289444 419.2661438 550.29940796 C413.84530092 550.56514835 408.42311856 550.78642131 403 551 C401.46300398 551.06079443 401.46300398 551.06079443 399.89495754 551.12281704 C381.31571327 551.84076837 362.76961501 552.16361626 344.17533517 552.16725707 C342.06448578 552.16798559 339.95364229 552.17015228 337.84279442 552.17275429 C330.37281273 552.18192109 322.90284846 552.1861012 315.43286133 552.18530273 C309.39019084 552.18477317 303.34758555 552.19177054 297.30493164 552.20581055 C206.41049347 552.41216235 115.19807486 548.52696823 -75 507 C-75.87470947 506.6297168 -76.74941895 506.25943359 -77.65063477 505.87792969 C-80 504 -80 504 -80.59936523 500.68017578 C-80.61202717 499.26854605 -80.59609857 497.85650072 -80.55859375 496.4453125 C-80.55716873 495.66300262 -80.55574371 494.88069275 -80.55427551 494.07467651 C-80.54135455 491.423873 -80.49020203 488.775293 -80.4375 486.125 C-80.41577242 484.20834677 -80.39530051 482.29167897 -80.37597656 480.375 C-80.29685747 473.91550488 -80.15150897 467.45814228 -80 461 C-79.97488342 459.86413452 -79.94976685 458.72826904 -79.92388916 457.5579834 C-77.79653604 362.03932683 -70.98866183 266.25303603 -55 172 C-54.8626947 171.18196899 -54.7253894 170.36393799 -54.58392334 169.52111816 C-32.32963571 36.94815509 -32.32963571 36.94815509 0 0 Z " fill="#currentColor" transform="translate(207,344)"/>
</svg>
