<?xml version="1.0" encoding="UTF-8"?>
<svg version="1.1" xmlns="http://www.w3.org/2000/svg" width="512" height="512">
<path d="M0 0 C2.59729509 2.31710743 5.13711895 4.68292023 7.66015625 7.08105469 C10.16735285 9.47708274 10.16735285 9.47708274 12.84765625 11.55371094 C16.45412744 14.45677121 19.22241494 17.93649032 22.2109375 21.45605469 C23.02691406 22.37257813 23.84289062 23.28910156 24.68359375 24.23339844 C32.45702821 33.03968675 38.9758093 42.51331495 45.2109375 52.45605469 C45.62085938 53.10380859 46.03078125 53.7515625 46.453125 54.41894531 C57.8156705 72.62570866 65.37078144 93.61351557 70.2109375 114.45605469 C70.41976563 115.33438965 70.62859375 116.21272461 70.84375 117.11767578 C82.44426261 168.33797709 72.03795741 226.14117488 44.2109375 270.45605469 C37.31322578 281.105483 29.59270594 290.94721692 21.2109375 300.45605469 C20.49035156 301.29910156 19.76976562 302.14214844 19.02734375 303.01074219 C14.7500285 307.96342301 10.21540136 312.25298709 5.2109375 316.45605469 C4.29957031 317.266875 3.38820313 318.07769531 2.44921875 318.91308594 C-6.36051964 326.69421865 -15.8398852 333.21688947 -25.7890625 339.45605469 C-26.43681641 339.86597656 -27.08457031 340.27589844 -27.75195312 340.69824219 C-70.66918476 367.48218989 -127.57675382 375.78148201 -176.84179688 365.140625 C-213.67928355 356.58427041 -245.46638158 340.4216876 -273.7890625 315.45605469 C-275.05363281 314.37517578 -275.05363281 314.37517578 -276.34375 313.27246094 C-281.29643082 308.99514568 -285.5859949 304.46051854 -289.7890625 299.45605469 C-290.59988281 298.5446875 -291.41070312 297.63332031 -292.24609375 296.69433594 C-300.02722646 287.88459755 -306.54989729 278.40523198 -312.7890625 268.45605469 C-313.40394531 267.48442383 -313.40394531 267.48442383 -314.03125 266.49316406 C-325.3937955 248.28640071 -332.94890644 227.2985938 -337.7890625 206.45605469 C-337.99789062 205.57771973 -338.20671875 204.69938477 -338.421875 203.79443359 C-350.02238761 152.57413228 -339.61608241 94.77093449 -311.7890625 50.45605469 C-304.89135078 39.80662638 -297.17083094 29.96489246 -288.7890625 20.45605469 C-288.06847656 19.61300781 -287.34789062 18.76996094 -286.60546875 17.90136719 C-282.3281535 12.94868637 -277.79352636 8.65912229 -272.7890625 4.45605469 C-271.87769531 3.64523438 -270.96632813 2.83441406 -270.02734375 1.99902344 C-261.21760536 -5.78210928 -251.7382398 -12.3047801 -241.7890625 -18.54394531 C-241.14130859 -18.95386719 -240.49355469 -19.36378906 -239.82617188 -19.78613281 C-167.09379365 -65.17722959 -64.49038523 -55.65463922 0 0 Z M-149.7890625 24.45605469 C-152.4290625 61.41605469 -155.0690625 98.37605469 -157.7890625 136.45605469 C-194.7490625 139.09605469 -231.7090625 141.73605469 -269.7890625 144.45605469 C-269.7890625 155.01605469 -269.7890625 165.57605469 -269.7890625 176.45605469 C-214.3490625 180.41605469 -214.3490625 180.41605469 -157.7890625 184.45605469 C-155.1490625 221.41605469 -152.5090625 258.37605469 -149.7890625 296.45605469 C-139.2290625 296.45605469 -128.6690625 296.45605469 -117.7890625 296.45605469 C-115.1490625 259.49605469 -112.5090625 222.53605469 -109.7890625 184.45605469 C-72.8290625 181.81605469 -35.8690625 179.17605469 2.2109375 176.45605469 C2.2109375 165.89605469 2.2109375 155.33605469 2.2109375 144.45605469 C-53.2290625 140.49605469 -53.2290625 140.49605469 -109.7890625 136.45605469 C-112.4290625 99.49605469 -115.0690625 62.53605469 -117.7890625 24.45605469 C-128.3490625 24.45605469 -138.9090625 24.45605469 -149.7890625 24.45605469 Z " fill="#FFFFFF" transform="translate(389.7890625,95.5439453125)"/>
</svg>
