<?xml version="1.0" encoding="UTF-8"?>
<svg version="1.1" xmlns="http://www.w3.org/2000/svg" width="512" height="512">
<path d="M0 0 C17.71564767 11.67464162 37.92324846 19.7254364 59.17871094 21.83496094 C59.83419922 21.90054199 60.4896875 21.96612305 61.16503906 22.03369141 C96.58057804 25.33312835 131.43634513 16.28099802 160.19042969 -4.82519531 C166.75132708 -9.24638943 175.07111601 -8.82111908 182.58105469 -7.50097656 C184.09545402 -7.19358699 185.60718051 -6.8727865 187.11621094 -6.54003906 C187.93105957 -6.36327637 188.7459082 -6.18651367 189.58544922 -6.00439453 C203.00593256 -2.96662379 215.93121571 1.54253524 228.17871094 7.83496094 C228.7889209 8.14771973 229.39913086 8.46047852 230.02783203 8.78271484 C249.29985235 18.78906149 267.68405545 32.67829424 281.17871094 49.83496094 C281.60861328 50.37427246 282.03851563 50.91358398 282.48144531 51.46923828 C290.09453691 61.07708185 296.54675629 70.95066406 302.17871094 81.83496094 C302.66597656 82.74503906 303.15324219 83.65511719 303.65527344 84.59277344 C306.11434534 89.52764562 306.51799811 92.2848641 305.17871094 97.83496094 C303.62339996 101.01561222 301.74716557 103.9415713 299.80371094 106.89746094 C299.26641357 107.72947021 298.72911621 108.56147949 298.17553711 109.41870117 C290.77213308 120.71977648 282.32949802 130.91202486 273.17871094 140.83496094 C271.69873854 142.50091217 270.21958086 144.1675875 268.74121094 145.83496094 C225.24449669 194.1057048 162.64659389 223.26268463 98.17871094 228.83496094 C94.87366965 228.98418358 91.57276695 229.02127224 88.26464844 229.03808594 C87.34045105 229.04510025 86.41625366 229.05211456 85.46405029 229.05934143 C82.49388718 229.07676992 79.52392332 229.0831947 76.55371094 229.08496094 C75.54016541 229.08563568 74.52661987 229.08631042 73.48236084 229.08700562 C58.84013156 229.07148956 44.5808405 228.70483991 30.17871094 225.83496094 C29.24591309 225.65803711 28.31311523 225.48111328 27.35205078 225.29882812 C-15.7998419 217.00782236 -58.67928995 199.27610348 -91.82128906 169.83496094 C-92.67722656 169.07570313 -93.53316406 168.31644531 -94.41503906 167.53417969 C-96.11840186 166.00782297 -97.81525844 164.47416807 -99.50488281 162.93261719 C-101.49653723 161.12904481 -103.52150763 159.38389998 -105.57128906 157.64746094 C-115.20882255 149.22441338 -124.10918463 140.04956456 -131.82128906 129.83496094 C-132.59730469 128.86429688 -133.37332031 127.89363281 -134.17285156 126.89355469 C-138.92615761 120.92780309 -143.26739869 114.79895213 -147.32128906 108.33496094 C-147.95333252 107.32925049 -147.95333252 107.32925049 -148.59814453 106.30322266 C-152.38642643 100.14668259 -154.53972227 96.24471879 -152.82128906 88.83496094 C-151.78473832 86.15523378 -150.52772439 83.62918578 -149.19628906 81.08496094 C-148.83583496 80.38395264 -148.47538086 79.68294434 -148.10400391 78.96069336 C-134.35185638 52.59586196 -113.76448993 30.83053877 -88.82128906 14.83496094 C-88.24008301 14.46097168 -87.65887695 14.08698242 -87.06005859 13.70166016 C-62.66229158 -1.73482484 -26.01618547 -17.18791568 0 0 Z " fill="#000000" transform="translate(179.8212890625,283.1650390625)"/>
<path d="M0 0 C0.71575195 0.20367188 1.43150391 0.40734375 2.16894531 0.6171875 C23.67426058 6.94285445 41.78549765 18.72466815 58 34 C58.66386719 34.59941406 59.32773437 35.19882812 60.01171875 35.81640625 C75.87597166 50.7152888 87.54417636 72.07884949 93 93 C93.19174805 93.6815918 93.38349609 94.36318359 93.58105469 95.06542969 C99.64419773 117.1123234 99.39885713 143.06811469 93 165 C92.79632813 165.71575195 92.59265625 166.43150391 92.3828125 167.16894531 C87.29909811 184.4520052 78.66512751 200.30941627 67 214 C66.26007813 214.87914062 65.52015625 215.75828125 64.7578125 216.6640625 C46.21375328 237.97983164 23.00070031 251.49295869 -4 259 C-4.69464355 259.19352051 -5.38928711 259.38704102 -6.10498047 259.58642578 C-25.11358172 264.56068359 -48.11755371 264.11399587 -67 259 C-68.35412228 258.66778778 -69.70829081 258.33576401 -71.0625 258.00390625 C-93.52572735 252.20836764 -111.83748411 240.28357557 -129 225 C-129.72832031 224.35675781 -130.45664063 223.71351563 -131.20703125 223.05078125 C-147.36426898 207.88074746 -158.41426926 186.36217762 -164.75 165.4375 C-164.94875732 164.78998779 -165.14751465 164.14247559 -165.35229492 163.4753418 C-168.5893857 152.22669415 -169.36560662 140.90578051 -169.3125 129.25 C-169.31001251 128.5925882 -169.30752502 127.93517639 -169.30496216 127.25784302 C-169.24425107 116.85385421 -168.79157239 107.05387606 -166 97 C-165.77957031 96.19868652 -165.55914062 95.39737305 -165.33203125 94.57177734 C-158.73009147 71.39949267 -147.48939749 52.50321216 -131 35 C-130.40058594 34.33613281 -129.80117187 33.67226563 -129.18359375 32.98828125 C-114.2847112 17.12402834 -92.92115051 5.45582364 -72 0 C-71.3184082 -0.19174805 -70.63681641 -0.38349609 -69.93457031 -0.58105469 C-47.8876766 -6.64419773 -21.93188531 -6.39885713 0 0 Z " fill="#000000" transform="translate(292,4)"/>
</svg>
