<?xml version="1.0" encoding="UTF-8"?>
<svg version="1.1" xmlns="http://www.w3.org/2000/svg" width="512" height="512">
<path d="M0 0 C3.41063013 0.56139772 6.05091594 1.36479071 9.046875 3.08203125 C9.80081543 3.51322266 10.55475586 3.94441406 11.33154297 4.38867188 C12.12963379 4.85853516 12.92772461 5.32839844 13.75 5.8125 C14.58547363 6.30169922 15.42094727 6.79089844 16.28173828 7.29492188 C29.81101583 15.33839038 42.22001325 24.58467217 54 35 C54.91652344 35.7940625 55.83304687 36.588125 56.77734375 37.40625 C61.25984411 41.34276159 65.39788704 45.36418389 69.23828125 49.9296875 C71.17618483 52.20704647 73.21090147 54.37543149 75.25 56.5625 C85.75377154 68.25907271 94.11409395 81.447429 102 95 C102.47211914 95.8034082 102.94423828 96.60681641 103.43066406 97.43457031 C104.11854004 98.63098145 104.11854004 98.63098145 104.8203125 99.8515625 C105.23812988 100.57424316 105.65594727 101.29692383 106.08642578 102.04150391 C107 104 107 104 107 107 C89.85960659 114.4454455 72.63175401 121.65216932 55.33374023 128.72265625 C53.64565195 129.41271485 51.95758241 130.10281934 50.26953125 130.79296875 C49.42601608 131.13782318 48.58250092 131.48267761 47.71342468 131.83798218 C39.15016101 135.34210053 30.60412652 138.88734746 22.05975342 142.43722534 C19.51391812 143.49422139 16.96730808 144.54932699 14.42041016 145.60375977 C6.49681816 148.88482418 -1.42302487 152.17388643 -9.32949829 155.49603271 C-12.95213399 157.01603139 -16.57847912 158.52703633 -20.20556641 160.03637695 C-21.93139935 160.75706333 -23.65555453 161.48178183 -25.37792969 162.21069336 C-27.75429202 163.21591607 -30.13604454 164.20712637 -32.51953125 165.1953125 C-33.57277336 165.64700302 -33.57277336 165.64700302 -34.64729309 166.1078186 C-37.33672852 167.20963456 -39.43990856 168.05038226 -42.36938477 167.78686523 C-44.71662146 166.6541891 -45.66351013 165.07832561 -47.125 162.9375 C-51.02457835 157.63611244 -55.73453517 153.88818027 -61 150 C-60.38666312 144.75405623 -58.69724717 140.42724391 -56.6328125 135.625 C-56.28660355 134.80474335 -55.94039459 133.98448669 -55.58369446 133.13937378 C-54.83168968 131.35945439 -54.07678199 129.58075929 -53.31930542 127.80316162 C-51.68267746 123.96182203 -50.06044397 120.11445938 -48.43754578 116.26730347 C-47.5841412 114.24433573 -46.73005505 112.2216554 -45.87532043 110.19924927 C-41.3352159 99.44954312 -36.88280759 88.66416905 -32.4375 77.875 C-31.2533555 75.00379203 -30.06888271 72.13271964 -28.88438416 69.26165771 C-28.09870553 67.35727382 -27.31311147 65.45285503 -26.52760315 63.54840088 C-22.62204033 54.08043748 -18.70763559 44.61614722 -14.78713989 35.15435791 C-14.06779175 33.41796452 -13.34876424 31.68143826 -12.63009644 29.94476318 C-8.48710142 19.93362524 -4.29748878 9.94593327 0 0 Z " fill="#000000" transform="translate(356,73)"/>
<path d="M0 0 C4.7849935 0.59582901 8.89086327 2.02035785 13.28125 3.9296875 C13.99029984 4.23141373 14.69934967 4.53313995 15.42988586 4.8440094 C16.97418321 5.50179126 18.51725632 6.16245311 20.05923462 6.82565308 C24.31867815 8.65689585 28.58777978 10.46542128 32.85546875 12.27734375 C33.75827072 12.66130814 34.66107269 13.04527252 35.5912323 13.44087219 C45.96729273 17.84819394 56.3889716 22.14395844 66.8125 26.4375 C68.75044369 27.23648304 70.68835053 28.03555547 72.6262207 28.8347168 C75.53273643 30.03332067 78.43926889 31.23188358 81.34593201 32.43013 C90.7601653 36.31161397 100.16924802 40.20548099 109.57601929 44.10501099 C111.27613911 44.80973035 112.97635008 45.51422987 114.67666626 46.21847534 C126.46932554 51.10293028 138.23947626 56.03861528 150 61 C150 70.24 150 79.48 150 89 C124.93128409 99.60374506 99.80553728 110.06204055 74.64038086 120.43467712 C66.18620665 123.92048998 57.73868792 127.42222639 49.29296875 130.9284668 C45.81857696 132.37084051 42.34334226 133.81114791 38.8671875 135.24926758 C31.8007191 138.17336087 24.73793089 141.10336321 17.69921875 144.09375 C16.65830078 144.53187012 15.61738281 144.96999023 14.54492188 145.42138672 C12.7206825 146.18979924 10.89995288 146.96663475 9.08398438 147.75439453 C5.2620357 149.35437346 2.96959224 150.30361212 -1 149 C-6.91202385 128.73443527 -12.03384849 108.10103112 -12.23828125 86.8828125 C-12.25297203 85.61300789 -12.25297203 85.61300789 -12.26795959 84.31755066 C-12.82045166 24.11791855 -12.82045166 24.11791855 0 0 Z " fill="#000000" transform="translate(38,205)"/>
<path d="M0 0 C7.4454455 17.14039341 14.65216932 34.36824599 21.72265625 51.66625977 C22.41271485 53.35434805 23.10281934 55.04241759 23.79296875 56.73046875 C24.13782318 57.57398392 24.48267761 58.41749908 24.83798218 59.28657532 C28.34210053 67.84983899 31.88734746 76.39587348 35.43722534 84.94024658 C36.49422139 87.48608188 37.54932699 90.03269192 38.60375977 92.57958984 C41.88482418 100.50318184 45.17388643 108.42302487 48.49603271 116.32949829 C50.01603139 119.95213399 51.52703633 123.57847912 53.03637695 127.20556641 C53.75706333 128.93139935 54.48178183 130.65555453 55.21069336 132.37792969 C56.21591607 134.75429202 57.20712637 137.13604454 58.1953125 139.51953125 C58.49643951 140.22169266 58.79756653 140.92385406 59.1078186 141.64729309 C60.20963456 144.33672852 61.05038226 146.43990856 60.78686523 149.36938477 C59.6541891 151.71662146 58.07832561 152.66351013 55.9375 154.125 C50.63611244 158.02457835 46.88818027 162.73453517 43 168 C38.12467915 167.4019368 33.94383909 165.90837604 29.47265625 163.96484375 C28.74424026 163.65482422 28.01582428 163.34480469 27.26533508 163.02539062 C25.6888737 162.35382639 24.11363062 161.67939651 22.53948975 161.00241089 C18.26529523 159.16484322 13.98168704 157.34943122 9.69921875 155.53125 C8.81316956 155.15443588 7.92712036 154.77762177 7.01422119 154.38938904 C-2.16590032 150.4912243 -11.39180399 146.70780795 -20.625 142.9375 C-49.49064263 131.13596536 -78.2485174 119.07648684 -107 107 C-106.43860228 103.58936987 -105.63520929 100.94908406 -103.91796875 97.953125 C-103.48677734 97.19918457 -103.05558594 96.44524414 -102.61132812 95.66845703 C-102.14146484 94.87036621 -101.67160156 94.07227539 -101.1875 93.25 C-100.69830078 92.41452637 -100.20910156 91.57905273 -99.70507812 90.71826172 C-91.66636162 77.19697713 -82.43450965 64.75372705 -72 53 C-71.13246094 52.01 -70.26492187 51.02 -69.37109375 50 C-65.13611897 45.24131079 -60.84968935 40.75665891 -55.96875 36.66015625 C-53.89922487 34.91502097 -51.92613829 33.0865223 -49.9375 31.25 C-38.3585512 20.99492418 -25.33499124 12.75930177 -12 5 C-10.7948877 4.29182129 -10.7948877 4.29182129 -9.56542969 3.56933594 C-8.76782227 3.11075195 -7.97021484 2.65216797 -7.1484375 2.1796875 C-6.42575684 1.76187012 -5.70307617 1.34405273 -4.95849609 0.91357422 C-3 0 -3 0 0 0 Z " fill="#000000" transform="translate(156,73)"/>
<path d="M0 0 C5.24594377 0.61333688 9.57275609 2.30275283 14.375 4.3671875 C15.19525665 4.71339645 16.01551331 5.05960541 16.86062622 5.41630554 C18.64054561 6.16831032 20.41924071 6.92321801 22.19683838 7.68069458 C26.03817797 9.31732254 29.88554062 10.93955603 33.73269653 12.56245422 C35.75566427 13.4158588 37.7783446 14.26994495 39.80075073 15.12467957 C50.55045688 19.6647841 61.33583095 24.11719241 72.125 28.5625 C74.99620797 29.7466445 77.86728036 30.93111729 80.73834229 32.11561584 C82.64272618 32.90129447 84.54714497 33.68688853 86.45159912 34.47239685 C95.91956252 38.37795967 105.38385278 42.29236441 114.84564209 46.21286011 C116.58203548 46.93220825 118.31856174 47.65123576 120.05523682 48.36990356 C130.06637476 52.51289858 140.05406673 56.70251122 150 61 C149.43860228 64.41063013 148.63520929 67.05091594 146.91796875 70.046875 C146.48685791 70.80073486 146.05574707 71.55459473 145.61157227 72.33129883 C144.90665649 73.52855591 144.90665649 73.52855591 144.1875 74.75 C143.69757568 75.58619873 143.20765137 76.42239746 142.70288086 77.28393555 C134.75272345 90.65024018 125.67306194 102.90541819 115.328125 114.50439453 C114.12089012 115.86386528 112.93423532 117.24154184 111.75 118.62109375 C108.11616757 122.82980983 104.35602873 126.61851349 100.10546875 130.203125 C97.81845764 132.15493411 95.63665319 134.19988033 93.4375 136.25 C81.74092729 146.75377154 68.552571 155.11409395 55 163 C54.1965918 163.47211914 53.39318359 163.94423828 52.56542969 164.43066406 C51.36901855 165.11854004 51.36901855 165.11854004 50.1484375 165.8203125 C49.42575684 166.23812988 48.70307617 166.65594727 47.95849609 167.08642578 C46 168 46 168 43 168 C34.32730901 147.77119242 25.73643079 127.51834147 17.52175903 107.09869385 C13.0765153 96.05408064 8.53153483 85.05686431 3.89233398 74.09228516 C0.9195496 67.06518503 -2.04101907 60.03292142 -5 53 C-5.32732117 52.22267517 -5.65464233 51.44535034 -5.99188232 50.64447021 C-7.90401 46.09962284 -9.80358543 41.54989152 -11.6852417 36.99234009 C-12.26474104 35.59366745 -12.84820777 34.19663124 -13.43585205 32.80136108 C-14.24007456 30.89003122 -15.02997432 28.9733922 -15.81640625 27.0546875 C-16.26443604 25.97687012 -16.71246582 24.89905273 -17.17407227 23.78857422 C-18.02095749 20.92924138 -18.17574568 19.70298714 -17 17 C-15.21484375 15.4296875 -15.21484375 15.4296875 -12.9375 13.875 C-7.63611244 9.97542165 -3.88818027 5.26546483 0 0 Z " fill="#000000" transform="translate(313,319)"/>
<path d="M0 0 C1.5703125 1.78515625 1.5703125 1.78515625 3.125 4.0625 C7.02457835 9.36388756 11.73453517 13.11181973 17 17 C16.38666312 22.24594377 14.69724717 26.57275609 12.6328125 31.375 C12.28660355 32.19525665 11.94039459 33.01551331 11.58369446 33.86062622 C10.83168968 35.64054561 10.07678199 37.41924071 9.31930542 39.19683838 C7.68267746 43.03817797 6.06044397 46.88554062 4.43754578 50.73269653 C3.5841412 52.75566427 2.73005505 54.7783446 1.87532043 56.80075073 C-2.6647841 67.55045688 -7.11719241 78.33583095 -11.5625 89.125 C-12.7466445 91.99620797 -13.93111729 94.86728036 -15.11561584 97.73834229 C-15.90129447 99.64272618 -16.68688853 101.54714497 -17.47239685 103.45159912 C-21.37795967 112.91956252 -25.29236441 122.38385278 -29.21286011 131.84564209 C-29.93220825 133.58203548 -30.65123576 135.31856174 -31.36990356 137.05523682 C-35.51289858 147.06637476 -39.70251122 157.05406673 -44 167 C-66.10548513 162.08969317 -89.9109137 141.03874907 -105 125 C-107.37241821 122.60083955 -109.75608443 120.22845613 -112.21875 117.921875 C-127.85596392 103.03439051 -142.30927747 82.82094611 -151 63 C-151 62.01 -151 61.02 -151 60 C-125.63748639 49.28372156 -100.23374149 38.67108123 -74.78851318 28.152771 C-71.88053374 26.95061266 -68.97272341 25.74804598 -66.06494141 24.54541016 C-59.98117405 22.02935424 -53.89692857 19.51445646 -47.8125 17 C-46.87543213 16.61266693 -45.93836426 16.22533386 -44.97290039 15.82626343 C-44.05951904 15.4487796 -43.1461377 15.07129578 -42.20507812 14.68237305 C-41.30224091 14.30920456 -40.39940369 13.93603607 -39.46920776 13.55155945 C-37.68399685 12.81486708 -35.89813789 12.07974297 -34.11160278 11.3462677 C-29.35765252 9.39395792 -24.61658956 7.4158223 -19.88818359 5.40234375 C-18.88430099 4.97961182 -17.8804184 4.55687988 -16.84611511 4.12133789 C-14.91479424 3.30796987 -12.98709978 2.48592091 -11.06367493 1.65405273 C-10.19663437 1.29126221 -9.32959381 0.92847168 -8.4362793 0.5546875 C-7.6743779 0.22968262 -6.9124765 -0.09532227 -6.12748718 -0.43017578 C-3.65105248 -1.09346178 -2.37299627 -0.92364167 0 0 Z " fill="#000000" transform="translate(200,320)"/>
<path d="M0 0 C5.22460938 0.43945312 5.22460938 0.43945312 10.44921875 0.87890625 C16.31797285 1.19011758 22.15952005 0.53593152 28 0 C38.60765633 25.06699462 49.06206956 50.19453311 59.43467712 75.35961914 C62.92048998 83.81379335 66.42222639 92.26131208 69.9284668 100.70703125 C71.37084051 104.18142304 72.81114791 107.65665774 74.24926758 111.1328125 C77.17336087 118.1992809 80.10336321 125.26206911 83.09375 132.30078125 C83.53187012 133.34169922 83.96999023 134.38261719 84.42138672 135.45507812 C85.18979924 137.2793175 85.96663475 139.10004712 86.75439453 140.91601562 C88.35437346 144.7379643 89.30361212 147.03040776 88 151 C67.73449378 156.91200678 47.10099285 162.03398993 25.8828125 162.23828125 C25.03609482 162.24802979 24.18937714 162.25777832 23.31700134 162.26782227 C-5.69632508 162.5328946 -33.66803672 160.58308343 -61 150 C-60.40417099 145.2150065 -58.97964215 141.10913673 -57.0703125 136.71875 C-56.76858627 136.00970016 -56.46686005 135.30065033 -56.1559906 134.57011414 C-55.49820874 133.02581679 -54.83754689 131.48274368 -54.17434692 129.94076538 C-52.34310415 125.68132185 -50.53457872 121.41222022 -48.72265625 117.14453125 C-48.33869186 116.24172928 -47.95472748 115.33892731 -47.55912781 114.4087677 C-43.15180606 104.03270727 -38.85604156 93.6110284 -34.5625 83.1875 C-33.76351696 81.24955631 -32.96444453 79.31164947 -32.1652832 77.3737793 C-30.96667933 74.46726357 -29.76811642 71.56073111 -28.56987 68.65406799 C-24.68838603 59.2398347 -20.79451901 49.83075198 -16.89498901 40.42398071 C-16.19026965 38.72386089 -15.48577013 37.02364992 -14.78152466 35.32333374 C-9.89710164 23.53075152 -4.96410752 11.7592585 0 0 Z " fill="#000000" transform="translate(242,348)"/>
<path d="M0 0 C5.91202385 20.26556473 11.03384849 40.89896888 11.23828125 62.1171875 C11.25297203 63.38699211 11.25297203 63.38699211 11.26795959 64.68244934 C11.82045166 124.88208145 11.82045166 124.88208145 -1 149 C-5.7849935 148.40417099 -9.89086327 146.97964215 -14.28125 145.0703125 C-14.99029984 144.76858627 -15.69934967 144.46686005 -16.42988586 144.1559906 C-17.97418321 143.49820874 -19.51725632 142.83754689 -21.05923462 142.17434692 C-25.31867815 140.34310415 -29.58777978 138.53457872 -33.85546875 136.72265625 C-35.20967171 136.14670967 -35.20967171 136.14670967 -36.5912323 135.55912781 C-46.96729273 131.15180606 -57.3889716 126.85604156 -67.8125 122.5625 C-69.75044369 121.76351696 -71.68835053 120.96444453 -73.6262207 120.1652832 C-76.53273643 118.96667933 -79.43926889 117.76811642 -82.34593201 116.56987 C-91.7601653 112.68838603 -101.16924802 108.79451901 -110.57601929 104.89498901 C-112.27613911 104.19026965 -113.97635008 103.48577013 -115.67666626 102.78152466 C-127.46932554 97.89706972 -139.23947626 92.96138472 -151 88 C-151 78.76 -151 69.52 -151 60 C-125.93128409 49.39625494 -100.80553728 38.93795945 -75.64038086 28.56532288 C-67.18620665 25.07951002 -58.73868792 21.57777361 -50.29296875 18.0715332 C-46.81857696 16.62915949 -43.34334226 15.18885209 -39.8671875 13.75073242 C-32.8007191 10.82663913 -25.73793089 7.89663679 -18.69921875 4.90625 C-17.65830078 4.46812988 -16.61738281 4.03000977 -15.54492188 3.57861328 C-13.7206825 2.81020076 -11.89995288 2.03336525 -10.08398438 1.24560547 C-6.2620357 -0.35437346 -3.96959224 -1.30361212 0 0 Z " fill="#000000" transform="translate(475,206)"/>
<path d="M0 0 C1.03341616 2.3705102 2.06616638 4.74130582 3.09790039 7.11254883 C3.99964598 9.18243869 4.9038268 11.25126915 5.81030273 13.3190918 C8.06197373 18.47042208 10.27183578 23.62818717 12.3515625 28.8515625 C17.9076109 42.6880725 23.80957825 53.54399731 38 60 C49.99196109 64.51846098 60.16921299 63.77095808 72 59 C82.95619461 53.47149076 89.48447737 44.41514433 93.9375 33.25 C94.34790527 32.26443115 94.75831055 31.2788623 95.18115234 30.26342773 C96.03448662 28.21402121 96.88113234 26.16181735 97.72119141 24.10693359 C99.79586846 19.06639519 101.96594879 14.06731805 104.125 9.0625 C104.87834793 7.30370381 105.63102592 5.5446204 106.3828125 3.78515625 C106.85291748 2.68506226 106.85291748 2.68506226 107.33251953 1.56274414 C107.55278809 1.04703857 107.77305664 0.53133301 108 0 C119.24542349 2.19698554 119.24542349 2.19698554 123.5625 3.375 C124.80193359 3.69597656 124.80193359 3.69597656 126.06640625 4.0234375 C128 5 128 5 128.7059021 6.80940247 C129.0532364 9.39653301 128.64731433 10.63349462 127.63916016 13.02612305 C127.31288635 13.81606659 126.98661255 14.60601013 126.65045166 15.41989136 C126.28369324 16.2751944 125.91693481 17.13049744 125.5390625 18.01171875 C125.16231384 18.9152005 124.78556519 19.81868225 124.3973999 20.74954224 C123.15036956 23.733356 121.88764963 26.71026619 120.625 29.6875 C119.74967947 31.77450833 118.87550694 33.8619985 118.00244141 35.94995117 C116.2106421 40.23155179 114.41324393 44.51073334 112.61132812 48.78808594 C109.17557919 56.95043026 105.79085457 65.13370644 102.40713501 73.31771851 C100.6796907 77.49313746 98.9470599 81.66640274 97.21484375 85.83984375 C94.28787 92.893499 91.36385152 99.94837367 88.44140625 107.00390625 C87.30523518 109.74630321 86.1690151 112.48867986 85.03277588 115.23104858 C84.31998549 116.95169559 83.60737045 118.67241526 82.8949585 120.39321899 C77.97341215 132.28060298 73.00439987 144.14725541 68 156 C64.51692708 155.70703125 61.03385417 155.4140625 57.55078125 155.12109375 C51.68202715 154.80988242 45.84047995 155.46406848 40 156 C29.39234367 130.93300538 18.93793044 105.80546689 8.56532288 80.64038086 C5.07951002 72.18620665 1.57777361 63.73868792 -1.9284668 55.29296875 C-3.37084051 51.81857696 -4.81114791 48.34334226 -6.24926758 44.8671875 C-9.17336087 37.8007191 -12.10336321 30.73793089 -15.09375 23.69921875 C-15.53187012 22.65830078 -15.96999023 21.61738281 -16.42138672 20.54492188 C-17.18979924 18.7206825 -17.96663475 16.89995288 -18.75439453 15.08398438 C-21.0523285 9.59479606 -21.0523285 9.59479606 -20.81152344 6.85766602 C-20 5 -20 5 -16.2890625 3.515625 C-14.73923259 3.07624023 -13.18414959 2.65507318 -11.625 2.25 C-10.45324219 1.91935547 -10.45324219 1.91935547 -9.2578125 1.58203125 C-6.04009396 0.69495473 -3.3576267 0 0 0 Z " fill="#000000" transform="translate(202,56)"/>
<path d="M0 0 C9.04406096 6.47619365 14.86670645 15.32667761 17.25 26.25 C18.1300124 40.80627072 16.78682748 52.56683316 7.25 64.25 C0.23900936 71.89275023 -9.29330505 76.85965472 -19.69140625 77.48828125 C-33.85195306 77.82905538 -44.95079051 75.32185548 -55.6875 65.47265625 C-65.17487711 55.47410581 -67.24283755 44.07335004 -67.02734375 30.8125 C-66.57110108 19.75372241 -60.99874282 10.03050443 -53.0625 2.5 C-37.84382329 -10.1089229 -16.35530973 -10.0268733 0 0 Z M-36.75 28.25 C-38.62855086 32.00710172 -38.41379578 36.16978738 -37.75 40.25 C-35.74988833 43.68403788 -33.32648506 46.46175747 -29.75 48.25 C-25.44787555 48.87133059 -21.41604513 49.22036679 -17.5703125 46.98046875 C-14.49075659 44.35454037 -12.04077311 42.26332773 -11.44140625 38.11328125 C-11.19071139 33.15256166 -11.32080641 30.06249103 -14.625 26.1875 C-17.76876451 22.96020551 -19.93369202 22.04010439 -24.4375 21.8125 C-30.14102947 21.83729795 -33.13333025 23.98078127 -36.75 28.25 Z " fill="#000000" transform="translate(280.75,244.75)"/>
<path d="M0 0 C1.25858322 -0.01929062 2.51716644 -0.03858124 3.81388855 -0.05845642 C5.19533256 -0.07326588 6.576788 -0.08703895 7.95825195 -0.09985352 C8.65376474 -0.10642534 9.34927753 -0.11299717 10.06586647 -0.11976814 C13.7502705 -0.15236825 17.43464561 -0.17681269 21.11914062 -0.19628906 C24.16221495 -0.21407342 27.2043575 -0.24884298 30.24707031 -0.29882812 C33.92588373 -0.35918955 37.6038361 -0.38978644 41.28312111 -0.39946175 C42.68135407 -0.40799409 44.0795654 -0.42675789 45.47751427 -0.45620537 C57.77458373 -0.70120784 57.77458373 -0.70120784 62.35986328 3.12255859 C66.30455567 7.2374645 66.58651181 10.8114471 66.53149414 16.40991211 C65.40758033 24.58192091 61.49877169 31.99704535 58.1340332 39.45874023 C57.34772159 41.24206281 56.56355364 43.02633205 55.78149414 44.81152344 C54.61525523 47.47180134 53.44716274 50.13110241 52.27001953 52.78657532 C50.03881838 57.82250446 47.88629214 62.87643274 45.8293457 67.98608398 C45.16201416 69.64365723 45.16201416 69.64365723 44.48120117 71.3347168 C43.69321687 73.30861274 42.91299049 75.28563204 42.14233398 77.26635742 C39.73049879 83.23288724 37.38207166 87.08854463 31.8215332 90.58374023 C27.41334121 91.56333845 23.38504722 91.29370239 19.0090332 90.20874023 C9.04020373 83.34132438 5.01010588 65.78250987 0.5715332 54.95874023 C-0.54144504 52.25298909 -1.65550346 49.54768759 -2.77047729 46.84275818 C-3.49365465 45.08736135 -4.21545418 43.33139621 -4.93582153 41.57484436 C-6.52753154 37.7033368 -8.13653255 33.8445502 -9.83618164 30.01904297 C-10.25577904 29.06973907 -10.25577904 29.06973907 -10.68385315 28.10125732 C-11.41694439 26.45418933 -12.16109135 24.81205394 -12.90625 23.17041016 C-14.73246517 18.18418099 -15.1720018 13.39302373 -13.9909668 8.20874023 C-10.45470007 1.99348356 -7.01385994 0.10019482 0 0 Z " fill="#000000" transform="translate(229.990966796875,1.791259765625)"/>
</svg>
